<svg id = "ghost_move"	width="400"	height="480"	viewBox="0	0	100	120" xmlns="http://www.w3.org/2000/svg">
	 	 <rect	 id="background"	 width="100"	 height="120"	 style="fill:black;	 stroke-width:1;
stroke:black"/>
		<g	id="ghost"	transform="rotate(0),	translate(0,0),	scale	(1.0)">
	 	 	 	 <path	 id="body"	 d="M	 10	 120	 A	 2.0	 5.8,	 0	 0	 1,	 90	 120"
         style="stroke:white;	 stroke-width:0.5;	fill:white"/>
				<g	id="eyes"	transform="rotate(0,50,40),	translate(0,0)">
						<g	id="eye-l"	transform="rotate(0,50,40),	translate(0,0)">
	 	 	 	 	 	 	 	 <ellipse	 id="eye-l-ball"	 cx="45"	 cy="40"	 rx="4"	 ry="6"	 style="stroke:black;
                fill:black;"/>
								<rect	transform="rotate(16,46,35)"	x="40"	y="33"	width="11"	height="6"	fill="white"
               visibility="hidden"	/>
								<circle	id="eye-l-pupil"	cx="45"	cy="44"	r="0.5"	style="stroke:white;	fill:white">
                </circle>
								<g	id="eye-l-brow">
	 	 	 	 	 	 	 	 	 	 <path	 d="M	 41	 32	 Q	 45	 27	 49	 32"	 stroke="black"	 stroke-width="0.5"
                      fill="transparent"/>
	 	 	 	 	 	 	 	 	 	 <path	 d="M	 41	 32	 Q	 45	 26	 49	 32"	 stroke="black"	 stroke-width="0.5"
                      fill="transparent"/>
								</g>
						</g>
						<g	id="eye-r"	transform="rotate(0,50,40),	translate(0,0)">
	 	 	 	 	 	 	 	 <ellipse	 id="eye-r-ball"	 cx="55"	 cy="40"	 rx="4"	 ry="6"	 style="stroke:black;
                 fill:black"/>
	 	 	 	 	 	 	 	 <rect	 transform="rotate(-16,56,35)"	 x="49"	 y="32"	 width="11"	 height="6"
                   fill="white"	visibility="hidden"	/>
								<circle	id="eye-r-pupil"	cx="55"	cy="44"	r="0.5"	style="stroke:white;	fill:white"/>
						</g>
						<g	id="eye-l-brow">
	 	 	 	 	 	 	 	 <path	 d="M	 51	 32	 Q	 55	 27	 59	 32"	 stroke="black"	 stroke-width="0.5"
                   fill="transparent"/>
	 	 	 	 	 	 	 	 <path	 d="M	 51	 32	 Q	 55	 26	 59	 32"	 stroke="black"	 stroke-width="0.5"
                   fill="transparent"/>
						</g>
				</g>
				<g  id="mouth">
            <path d="M 40 80 Q 51 87 61 80" stroke="black" fill="transparent"/>
        </g>
		</g>
</svg>
